	<svg width="318" height="38" viewBox="0 0 318 38" version="1.1" xmlns="http://www.w3.org/2000/svg"><g stroke="none" stroke-width="1" fill="none" fill-rule="evenodd"><path d="M17.3726475,4.84666376 C13.4842573,4.84666376 10.7762798,6.96634497 9.59920966,8.79187804 L9.59920966,5.61259497 L-0.000238756614,5.61259497 L-0.000238756614,36.5253688 L9.83510119,36.5253688 L9.83510119,18.0952683 C9.83510119,15.6227048 11.3655311,13.6797034 14.0744636,13.6797034 C16.4276488,13.6797034 18.1366687,15.2101333 18.1366687,18.0952683 L18.1366687,36.5253688 L27.969621,36.5253688 L27.969621,19.3912392 C27.969621,13.0904521 27.02892,4.84666376 17.3726475,4.84666376" fill="#2e65f2"></path><path d="M39.8577426,17.3890739 C40.0936341,15.2097036 41.6235865,12.7949192 44.8639913,12.7949192 C47.9248511,12.7949192 49.7522942,14.9160329 49.8697624,17.3890739 L39.8577426,17.3890739 Z M44.6873114,4.84671151 C35.6183802,4.84671151 29.4947505,12.0886771 29.4947505,21.1576083 C29.4947505,30.2843187 35.737281,37.2913478 45.9240706,37.2913478 C53.9319675,37.2913478 58.1722849,32.2865316 59.0552069,30.4609985 L52.5782175,25.4561824 C51.9884886,26.3391044 49.8100733,28.7538888 46.100273,28.7538888 C42.4496844,28.7538888 39.7999635,26.3987935 39.564072,23.6301718 L59.8201831,23.6301718 C59.8793947,22.9239298 59.8793947,22.2768993 59.8793947,21.6871705 C59.8793947,11.1474985 54.5207413,4.84671151 44.6873114,4.84671151 L44.6873114,4.84671151 Z" fill="#2e65f2"></path><path fill="#2e65f2" d="M95.6568345 5.61259497L91.4752512 25.8090169 86.8237948 5.61259497 77.6393054 5.61259497 72.9854615 25.8090169 68.8043557 5.61259497 58.0875263 5.61259497 66.7438861 36.5253688 77.8159853 36.5253688 82.2315501 19.0378794 86.6471149 36.5253688 97.7163491 36.5253688 106.372709 5.61259497z"></path><path d="M170.038831,4.59367725 C166.035838,4.59367725 163.148793,6.24300794 161.265481,8.65635979 C159.61615,6.12410714 156.909128,4.59367725 153.257584,4.59367725 C149.134257,4.59367725 146.661694,6.65366931 145.601614,8.53889153 L145.601614,5.35960847 L136.004553,5.35960847 L136.004553,36.2719048 L145.837983,36.2719048 L145.837983,17.8422817 C145.837983,15.0163585 147.310157,13.4267169 149.606518,13.4267169 C151.962568,13.4267169 153.31584,15.0741376 153.31584,17.8422817 L153.31584,36.2719048 L163.148793,36.2719048 L163.148793,17.8422817 C163.148793,15.1930384 164.622876,13.4267169 166.919237,13.4267169 C169.2729,13.4267169 170.685862,15.0741376 170.685862,17.8422817 L170.685862,36.2719048 L180.519292,36.2719048 L180.519292,15.7226005 C180.519292,9.18592196 177.163329,4.59367725 170.038831,4.59367725" fill="#2e65f2"></path><path d="M192.407365,17.1358487 C192.640869,14.9569558 194.173209,12.5416939 197.410271,12.5416939 C200.474474,12.5416939 202.298097,14.6632852 202.416998,17.1358487 L192.407365,17.1358487 Z M197.233592,4.59396376 C188.166093,4.59396376 182.044373,11.8354519 182.044373,20.9043831 C182.044373,30.0310934 188.283084,37.0386 198.469873,37.0386 C206.47968,37.0386 210.718565,32.0333063 211.60101,30.2077733 L205.12402,25.2029571 C204.536201,26.0858791 202.357786,28.501141 198.647986,28.501141 C194.997397,28.501141 192.347676,26.1455683 192.111785,23.3769466 L212.369328,23.3769466 C212.427107,22.6707045 212.427107,22.0236741 212.427107,21.4344228 C212.427107,10.8942733 207.068454,4.59396376 197.233592,4.59396376 L197.233592,4.59396376 Z" fill="#2e65f2"></path><path d="M225.553469,24.673013 L225.553469,13.3081981 L230.794654,13.3081981 L230.794654,5.35999048 L225.553469,5.35999048 L225.553469,0.477417725 L215.719561,0.477417725 L215.719561,5.35999048 L212.717435,5.35999048 L212.717435,13.3081981 L215.719561,13.3081981 L215.719561,24.2021849 C215.719561,33.3871519 219.958446,36.7445474 227.262011,36.7445474 C229.734574,36.7445474 231.030545,36.3916651 231.030545,36.3916651 L231.030545,27.9711968 C230.383515,28.0289759 229.911254,28.0289759 229.381692,28.0289759 C227.378524,28.0289759 225.553469,27.3819455 225.553469,24.673013" fill="#2e65f2"></path><path d="M243.823029,9.48121614 L243.823029,5.35979947 L234.223581,5.35979947 L234.223581,36.2720958 L244.057011,36.2720958 L244.057011,22.6113974 C244.057011,17.9594635 245.646652,14.4865098 250.417487,14.4865098 C251.123729,14.4865098 251.594079,14.5438114 252.007128,14.6035005 L252.007128,4.59386825 C248.180815,4.59386825 245.29377,6.47718042 243.823029,9.48121614" fill="#2e65f2"></path><path fill="#2e65f2" d="M254.553706 36.2719048L264.387136 36.2719048 264.387136 5.35913095 254.553706 5.35913095z"></path><path d="M283.429552,13.4265259 C285.725913,13.4265259 287.902418,14.3099254 289.610961,15.7224095 L292.260204,7.41940952 C290.083699,5.88945714 287.079186,4.59348624 283.076192,4.59348624 C273.534523,4.59348624 266.350814,11.3651013 266.350814,20.8446939 C266.350814,30.324764 273.300541,37.0386 283.133971,37.0386 C287.019974,37.0386 290.141478,35.68485 292.202425,34.2699783 L289.610961,26.2028698 C288.255778,27.3221608 286.078795,28.3817627 283.782434,28.3817627 C279.247969,28.3817627 276.185676,25.3199479 276.185676,20.7869148 C276.185676,16.6654981 278.776186,13.4265259 283.429552,13.4265259" fill="#2e65f2"></path><path d="M302.902207,14.014297 C302.902207,13.0731184 303.726395,12.4838671 305.139357,12.4838671 C307.553663,12.4838671 309.319985,13.9565179 310.262596,14.8972189 L316.623072,9.89240278 C314.795629,7.41936177 311.439666,4.59343849 305.551928,4.59343849 C298.838092,4.59343849 293.658506,8.18529299 293.658506,14.1327202 C293.658506,25.3791118 307.788122,23.8472493 307.788122,27.3818022 C307.788122,28.5010933 306.905678,29.0884345 305.021888,29.0884345 C301.901817,29.0884345 299.840392,27.8521528 298.191539,26.379502 L292.656206,31.739588 C294.480306,34.2121515 298.661412,37.0385522 304.55106,37.0385522 C311.616346,37.0385522 317.153112,33.1525496 317.153112,26.8517626 C317.153112,15.6631501 302.902207,17.9017321 302.902207,14.014297" fill="#2e65f2"></path><path class="yellow-path" fill="#FCC945" d="M121.419198 5.61259497L118.814841 5.61259497 111.09202 5.61259497 102.430407 36.5253688 110.153229 36.5253688 114.484274 21.0687431 117.091496 21.0687431z"></path><path class="yellow-path" fill="#FCC945" d="M125.851619 5.61283373L121.521052 21.0694594 118.91383 21.0694594 114.58565 36.5256075 117.190007 36.5256075 124.912828 36.5256075 133.573963 5.61283373z"></path></g></svg>	