<svg version="1.1" xmlns="http://www.w3.org/2000/svg" x="0" y="0" viewBox="0 0 1100 454.67" xml:space="preserve"><style type="text/css">.st0{fill:#fff}.st1{fill:#fac846}</style><path class="st0" d="M148.79,107.06c0-15.72-9.31-24.05-22.13-24.05c-14.75,0-23.09,10.58-23.09,24.05v100.39H50V39.07h52.28v17.32 c6.41-9.94,21.17-21.49,42.34-21.49c52.6,0,57.72,44.9,57.72,79.22v93.33h-53.56V107.06z"/><path class="st0" d="M269.3,137.21c1.29,15.08,15.72,27.91,35.61,27.91c20.2,0,32.07-13.15,35.28-17.96l35.28,27.26 c-4.81,9.94-27.91,37.21-71.53,37.21c-55.48,0-89.49-38.17-89.49-87.88c0-49.4,33.36-88.84,82.76-88.84 c53.56,0,82.75,34.32,82.75,91.73c0,3.21,0,6.73-0.32,10.58H269.3z M270.9,103.21h54.53c-0.64-13.47-10.59-25.02-27.26-25.02 C280.52,78.19,272.19,91.34,270.9,103.21z"/><path class="st0" d="M505.51,112.19l-24.05,95.25h-60.3L374,39.07h58.37l22.77,110.01l25.35-110.01h50.03l25.34,110.01 l22.77-110.01H637l-47.15,168.38h-60.29L505.51,112.19z"/><path class="st0" d="M197.85,415.6h-53.56V315.22c0-15.08-7.37-24.05-20.2-24.05c-12.51,0-20.53,8.66-20.53,24.05V415.6H50V247.22 h52.27v17.32c5.77-10.27,19.24-21.49,41.7-21.49c19.89,0,34.63,8.33,43.62,22.13c10.26-13.14,25.99-22.13,47.79-22.13 c38.81,0,57.08,25.01,57.08,60.62V415.6H238.9V315.22c0-15.08-7.7-24.05-20.52-24.05c-12.51,0-20.54,9.62-20.54,24.05V415.6z"/><path class="st0" d="M359.41,345.36c1.29,15.08,15.72,27.91,35.61,27.91c20.2,0,32.07-13.15,35.27-17.96l35.28,27.26 c-4.81,9.94-27.9,37.21-71.53,37.21c-55.48,0-89.47-38.17-89.47-87.88c0-49.4,33.35-88.84,82.74-88.84 c53.57,0,82.76,34.32,82.76,91.73c0,3.21,0,6.73-0.31,10.58H359.41z M361.02,311.37h54.52c-0.65-13.47-10.58-25.02-27.27-25.02 C370.64,286.34,362.3,299.5,361.02,311.37z"/><path class="st0" d="M543.46,247.23h28.55v43.29h-28.55v61.9c0,14.75,9.94,18.28,20.85,18.28c2.89,0,5.46,0,8.98-0.31v45.86 c0,0-7.06,1.92-20.53,1.92c-39.78,0-62.87-18.29-62.87-68.32v-59.34h-16.35v-43.29h16.35v-26.59h53.56V247.23z"/><path class="st0" d="M687.55,297.57c-2.25-0.32-4.81-0.64-8.66-0.64c-25.99,0-34.64,18.92-34.64,44.25v74.41h-53.56V247.22h52.28 v22.45c8.01-16.36,23.74-26.62,44.58-26.62V297.57z"/><path class="st0" d="M756.88,415.6h-53.56V247.22h53.56V415.6z"/><path class="st0" d="M896.18,360.76l14.12,43.94c-11.23,7.71-28.23,15.08-49.4,15.08c-53.56,0-91.41-36.57-91.41-88.2 s39.13-88.52,91.1-88.52c21.8,0,38.17,7.06,50.03,15.39l-14.43,45.23c-9.31-7.7-21.17-12.51-33.67-12.51 c-25.35,0-39.45,17.64-39.45,40.09c0,24.69,16.68,41.37,41.38,41.37C876.94,372.62,888.8,366.85,896.18,360.76z"/><path class="st0" d="M916.57,390.91l30.15-29.2c8.98,8.02,20.21,14.75,37.21,14.75c10.26,0,15.07-3.2,15.07-9.3 c0-19.25-76.96-10.91-76.96-72.16c0-32.4,28.21-51.96,64.78-51.96c32.07,0,50.35,15.39,60.3,28.86l-34.64,27.26 c-5.13-5.12-14.75-13.14-27.91-13.14c-7.7,0-12.18,3.21-12.18,8.33c0,21.17,77.62,8.98,77.62,69.93 c0,34.32-30.16,55.48-68.64,55.48C949.28,419.77,926.5,404.38,916.57,390.91z"/><path class="st1" d="M718.96 39.07L662.71 39.07 615.53 207.45 657.6 207.45 681.18 123.26 695.38 123.26z"/><path class="st1" d="M681.74 207.45L737.99 207.45 785.17 39.07 743.1 39.07 719.51 123.26 705.31 123.26z"/></svg>